<svg xmlns="http://www.w3.org/2000/svg" xmlns:xlink="http://www.w3.org/1999/xlink" width="500" zoomAndPan="magnify" viewBox="0 0 375 374.999991" height="500" preserveAspectRatio="xMidYMid meet" version="1.0"><defs><clipPath id="ee866d9a2d"><path d="M 76 96.953125 L 221.765625 96.953125 L 221.765625 225 L 76 225 Z M 76 96.953125 " clip-rule="nonzero"/></clipPath><clipPath id="9053287b4a"><path d="M 72 101 L 218 101 L 218 229.703125 L 72 229.703125 Z M 72 101 " clip-rule="nonzero"/></clipPath><clipPath id="c256789835"><path d="M 71.765625 98 L 221.765625 98 L 221.765625 229.703125 L 71.765625 229.703125 Z M 71.765625 98 " clip-rule="nonzero"/></clipPath></defs><g clip-path="url(#ee866d9a2d)"><path fill="#000000" d="M 205.730469 224.355469 C 214.582031 224.355469 221.757812 217.183594 221.757812 208.335938 L 221.757812 142.289062 C 221.757812 133.441406 214.582031 126.269531 205.730469 126.269531 L 134.386719 126.269531 L 100.996094 97 C 100.085938 96.203125 98.671875 96.964844 98.839844 98.164062 L 102.765625 126.269531 L 92.300781 126.269531 C 83.449219 126.269531 76.273438 133.441406 76.273438 142.289062 L 76.273438 208.335938 C 76.273438 217.183594 83.449219 224.355469 92.300781 224.355469 Z M 205.730469 224.355469 " fill-opacity="1" fill-rule="evenodd"/></g><g clip-path="url(#9053287b4a)"><path fill="#ffffff" d="M 201.546875 229.390625 C 210.398438 229.390625 217.570312 222.21875 217.570312 213.371094 L 217.570312 147.324219 C 217.570312 138.476562 210.398438 131.300781 201.546875 131.300781 L 130.203125 131.300781 L 96.8125 102.035156 C 95.898438 101.238281 94.484375 102 94.652344 103.199219 L 98.578125 131.300781 L 88.113281 131.300781 C 79.261719 131.300781 72.089844 138.476562 72.089844 147.324219 L 72.089844 213.371094 C 72.089844 222.21875 79.261719 229.390625 88.113281 229.390625 Z M 201.546875 229.390625 " fill-opacity="1" fill-rule="nonzero"/></g><g clip-path="url(#c256789835)"><path stroke-linecap="butt" transform="matrix(-0.062519, 0, 0, -0.0624971, 240.702029, 256.764886)" fill="none" stroke-linejoin="miter" d="M 626.29196 438.008762 C 484.710028 438.008762 369.994923 552.764157 369.994923 694.333313 L 369.994923 1751.133 C 369.994923 1892.702156 484.710028 2007.520054 626.29196 2007.520054 L 1767.444832 2007.520054 L 2301.532368 2475.792071 C 2316.152921 2488.54267 2338.77104 2476.354597 2336.084358 2457.166195 L 2273.290959 2007.520054 L 2440.677541 2007.520054 C 2582.259474 2007.520054 2696.974578 1892.702156 2696.974578 1751.133 L 2696.974578 694.333313 C 2696.974578 552.764157 2582.259474 438.008762 2440.677541 438.008762 Z M 626.29196 438.008762 " stroke="#000000" stroke-width="10" stroke-opacity="1" stroke-miterlimit="4"/></g></svg>